<mxfile host="app.diagrams.net" modified="2023-11-02T03:44:04.790Z" agent="Mozilla/5.0 (Windows NT 10.0; Win64; x64) AppleWebKit/537.36 (KHTML, like Gecko) Chrome/117.0.0.0 Safari/537.36 OPR/103.0.0.0" version="21.7.1" etag="5lq8AV_1sCmMKMw5oNJm" type="github">
  <diagram name="Page-1" id="QNjlMfcPetAGpx8qNisQ">
    <mxGraphModel>
      <root>
        <mxCell id="0" />
        <mxCell id="1" parent="0" />
      </root>
    </mxGraphModel>
  </diagram>
</mxfile>
